<svg xmlns="http://www.w3.org/2000/svg" viewBox="0 0 141.42 141.42"><defs><style>.cls-1{fill:#f7941d;}.cls-2{fill:none;stroke:#d1d3d4;stroke-linecap:round;stroke-dasharray:0.4 0.4;}.cls-2,.cls-4{stroke-miterlimit:10;stroke-width:0.25px;}.cls-3{fill:#603913;opacity:0.2;}.cls-4{fill:#a97c50;stroke:#231f20;}</style></defs><g id="Layer_2" data-name="Layer 2"><g id="Layer_1-2" data-name="Layer 1"><rect class="cls-1" x="0.71" y="0.71" width="140" height="140"/><rect class="cls-2" x="0.71" y="0.71" width="140" height="140"/><line class="cls-2" x1="0.71" y1="120.71" x2="140.71" y2="120.71"/><line class="cls-2" x1="0.71" y1="100.71" x2="140.71" y2="100.71"/><line class="cls-2" x1="0.71" y1="80.71" x2="140.71" y2="80.71"/><line class="cls-2" x1="0.71" y1="60.71" x2="140.71" y2="60.71"/><line class="cls-2" x1="0.71" y1="40.71" x2="140.71" y2="40.71"/><line class="cls-2" x1="0.71" y1="20.71" x2="140.71" y2="20.71"/><line class="cls-2" x1="120.71" y1="0.71" x2="120.71" y2="140.71"/><line class="cls-2" x1="100.71" y1="0.71" x2="100.71" y2="140.71"/><line class="cls-2" x1="80.71" y1="0.71" x2="80.71" y2="140.71"/><line class="cls-2" x1="60.71" y1="0.71" x2="60.71" y2="140.71"/><line class="cls-2" x1="40.71" y1="0.71" x2="40.71" y2="140.71"/><line class="cls-2" x1="20.71" y1="0.71" x2="20.71" y2="140.71"/><polygon class="cls-3" points="141.42 70.71 140.71 71.42 71.42 140.71 70.71 141.42 0 70.71 70.71 0 141.42 70.71"/><line class="cls-4" x1="70" y1="0.71" x2="0.71" y2="70"/><line class="cls-4" x1="140.71" y1="71.42" x2="71.42" y2="140.71"/></g></g></svg>