<svg xmlns="http://www.w3.org/2000/svg" viewBox="0 0 140.25 140.25"><defs><style>.cls-1{fill:#f7941d;}.cls-1,.cls-2{opacity:0.8;}.cls-2{fill:#fbb040;}.cls-3,.cls-4{fill:none;stroke-miterlimit:10;stroke-width:0.25px;}.cls-3{stroke:#d1d3d4;stroke-linecap:round;stroke-dasharray:0.4 0.4;}.cls-4{stroke:#231f20;}</style></defs><g id="Layer_2" data-name="Layer 2"><g id="Layer_1-2" data-name="Layer 1"><polygon class="cls-1" points="0.13 69.41 69.41 0.13 140.13 0.13 140.13 70.84 70.84 140.13 0.13 140.13 0.13 69.41"/><polygon class="cls-2" points="0.13 69.41 0.13 0.13 69.41 0.13 0.13 69.41"/><polygon class="cls-2" points="70.84 140.13 140.13 70.84 140.13 140.13 70.84 140.13"/><rect class="cls-3" x="0.13" y="0.13" width="140" height="140"/><line class="cls-3" x1="0.13" y1="120.12" x2="140.13" y2="120.12"/><line class="cls-3" x1="0.13" y1="100.13" x2="140.13" y2="100.13"/><line class="cls-3" x1="0.13" y1="80.12" x2="140.13" y2="80.12"/><line class="cls-3" x1="0.13" y1="60.13" x2="140.13" y2="60.13"/><line class="cls-3" x1="0.13" y1="40.12" x2="140.13" y2="40.12"/><line class="cls-3" x1="0.13" y1="20.13" x2="140.13" y2="20.13"/><line class="cls-3" x1="120.12" y1="0.13" x2="120.12" y2="140.13"/><line class="cls-3" x1="100.13" y1="0.13" x2="100.13" y2="140.13"/><line class="cls-3" x1="80.12" y1="0.13" x2="80.12" y2="140.13"/><line class="cls-3" x1="60.13" y1="0.13" x2="60.13" y2="140.13"/><line class="cls-3" x1="40.12" y1="0.13" x2="40.12" y2="140.13"/><line class="cls-3" x1="20.13" y1="0.13" x2="20.13" y2="140.13"/><line class="cls-4" x1="0.13" y1="0.13" x2="140.13" y2="140.13"/></g></g></svg>