<svg xmlns="http://www.w3.org/2000/svg" viewBox="0 0 209.38 209.38"><defs><style>.cls-1{fill:#f7941d;}.cls-1,.cls-3{opacity:0.8;}.cls-2{fill:none;stroke:#d1d3d4;stroke-linecap:round;stroke-miterlimit:10;stroke-width:0.25px;stroke-dasharray:0.4 0.4;}.cls-3{fill:#fbb040;}</style></defs><g id="Layer_2" data-name="Layer 2"><g id="Layer_1-2" data-name="Layer 1"><polygon class="cls-1" points="69.38 69.29 34.69 103.98 34.69 174.69 105.4 174.69 140.09 140 69.38 69.29"/><polygon class="cls-1" points="174.69 105.4 174.69 34.69 103.98 34.69 69.38 69.29 140.09 140 174.69 105.4"/><rect class="cls-2" x="34.69" y="34.69" width="140" height="140"/><line class="cls-2" x1="34.69" y1="154.69" x2="174.69" y2="154.69"/><line class="cls-2" x1="34.69" y1="134.69" x2="174.69" y2="134.69"/><line class="cls-2" x1="34.69" y1="114.69" x2="174.69" y2="114.69"/><line class="cls-2" x1="34.69" y1="94.69" x2="174.69" y2="94.69"/><line class="cls-2" x1="34.69" y1="74.69" x2="174.69" y2="74.69"/><line class="cls-2" x1="34.69" y1="54.69" x2="174.69" y2="54.69"/><line class="cls-2" x1="154.69" y1="34.69" x2="154.69" y2="174.69"/><line class="cls-2" x1="134.69" y1="34.69" x2="134.69" y2="174.69"/><line class="cls-2" x1="114.69" y1="34.69" x2="114.69" y2="174.69"/><line class="cls-2" x1="94.69" y1="34.69" x2="94.69" y2="174.69"/><line class="cls-2" x1="74.69" y1="34.69" x2="74.69" y2="174.69"/><line class="cls-2" x1="54.69" y1="34.69" x2="54.69" y2="174.69"/><polygon class="cls-3" points="174.69 34.6 140.09 0 105.49 34.6 174.69 34.6"/><polygon class="cls-3" points="0 139.95 34.69 174.65 34.69 105.36 34.6 105.36 0 139.95"/><polygon class="cls-3" points="69.33 209.38 104.03 174.69 34.74 174.69 34.74 174.78 69.33 209.38"/><polygon class="cls-3" points="209.38 69.33 174.69 34.65 174.69 103.93 174.78 103.93 209.38 69.33"/></g></g></svg>