<svg xmlns="http://www.w3.org/2000/svg" viewBox="0 0 330.62 140.31"><defs><style>.cls-1{fill:#f7941d;}.cls-1,.cls-2{opacity:0.8;}.cls-2{fill:#fbb040;}.cls-3{fill:none;stroke:#d1d3d4;stroke-linecap:round;stroke-miterlimit:10;stroke-width:0.25px;stroke-dasharray:0.4 0.4;}</style></defs><g id="Layer_2" data-name="Layer 2"><g id="Layer_1-2" data-name="Layer 1"><polygon class="cls-1" points="239.43 100 289.43 50 239.43 0 190.5 0 190.5 100 239.43 100"/><polygon class="cls-2" points="289.5 49.94 289.5 1 240.56 1 289.5 49.94"/><polygon class="cls-2" points="289.46 99.03 289.46 49.97 240.47 98.96 240.53 99.03 289.46 99.03"/><polygon class="cls-1" points="100.21 0.19 51.15 0.19 1.15 50.19 51.15 100.19 100.21 100.19 100.21 0.19"/><polygon class="cls-2" points="1.18 1.1 1.18 50.16 50.18 1.16 50.11 1.1 1.18 1.1"/><polygon class="cls-2" points="1.12 99.22 50.18 99.22 1.18 50.22 1.12 50.29 1.12 99.22"/><rect class="cls-3" x="0.13" y="0.19" width="140" height="140"/><line class="cls-3" x1="0.13" y1="120.19" x2="140.13" y2="120.19"/><line class="cls-3" x1="0.13" y1="100.19" x2="140.13" y2="100.19"/><line class="cls-3" x1="0.13" y1="80.19" x2="140.13" y2="80.19"/><line class="cls-3" x1="0.13" y1="60.19" x2="140.13" y2="60.19"/><line class="cls-3" x1="0.13" y1="40.19" x2="140.13" y2="40.19"/><line class="cls-3" x1="0.13" y1="20.19" x2="140.13" y2="20.19"/><line class="cls-3" x1="120.12" y1="0.19" x2="120.12" y2="140.19"/><line class="cls-3" x1="100.13" y1="0.19" x2="100.13" y2="140.19"/><line class="cls-3" x1="80.12" y1="0.19" x2="80.12" y2="140.19"/><line class="cls-3" x1="60.13" y1="0.19" x2="60.13" y2="140.19"/><line class="cls-3" x1="40.12" y1="0.19" x2="40.12" y2="140.19"/><line class="cls-3" x1="20.13" y1="0.19" x2="20.13" y2="140.19"/><rect class="cls-3" x="190.5" y="0.19" width="140" height="140"/><line class="cls-3" x1="190.5" y1="120.19" x2="330.5" y2="120.19"/><line class="cls-3" x1="190.5" y1="100.19" x2="330.5" y2="100.19"/><line class="cls-3" x1="190.5" y1="80.19" x2="330.5" y2="80.19"/><line class="cls-3" x1="190.5" y1="60.19" x2="330.5" y2="60.19"/><line class="cls-3" x1="190.5" y1="40.19" x2="330.5" y2="40.19"/><line class="cls-3" x1="190.5" y1="20.19" x2="330.5" y2="20.19"/><line class="cls-3" x1="310.5" y1="0.19" x2="310.5" y2="140.19"/><line class="cls-3" x1="290.5" y1="0.19" x2="290.5" y2="140.19"/><line class="cls-3" x1="270.5" y1="0.19" x2="270.5" y2="140.19"/><line class="cls-3" x1="250.5" y1="0.19" x2="250.5" y2="140.19"/><line class="cls-3" x1="230.5" y1="0.19" x2="230.5" y2="140.19"/><line class="cls-3" x1="210.5" y1="0.19" x2="210.5" y2="140.19"/></g></g></svg>