<svg xmlns="http://www.w3.org/2000/svg" viewBox="0 0 150 150"><defs><style>.cls-1,.cls-3{fill:none;stroke-miterlimit:10;stroke-width:0.5px;}.cls-1{stroke:#3a52a4;}.cls-2{font-size:10px;fill:#231f20;font-family:Georgia-Italic, Georgia;font-style:italic;}.cls-3{stroke:#000;}</style></defs><title>01-regular-polygon-base</title><g id="Layer_3" data-name="Layer 3"><polygon class="cls-1" points="104.56 14.52 45.44 14.52 15.87 65.72 45.44 116.93 104.56 116.93 134.13 65.72 104.56 14.52"/><text class="cls-2" transform="translate(72.14 132.45)">a</text><line class="cls-3" x1="47.08" y1="121.79" x2="102.92" y2="121.79"/><path d="M47.23,121.79a2.78,2.78,0,0,0,.59-1.7,5.14,5.14,0,0,1-2.08,1.7,5.46,5.46,0,0,1,2.08,1.71A2.94,2.94,0,0,0,47.23,121.79Z"/><path d="M102.77,121.79a2.78,2.78,0,0,1-.59-1.7,5.14,5.14,0,0,0,2.08,1.7,5.46,5.46,0,0,0-2.08,1.71A2.94,2.94,0,0,1,102.77,121.79Z"/></g></svg>