<svg xmlns="http://www.w3.org/2000/svg" viewBox="0 0 150 150"><defs><style>.cls-1,.cls-3{fill:none;}.cls-1{stroke:#000;}.cls-1,.cls-2,.cls-3{stroke-miterlimit:10;stroke-width:0.5px;}.cls-2{fill:#fff;}.cls-2,.cls-3{stroke:#3953a4;}.cls-4{font-size:10px;fill:#231f20;font-family:Georgia-Italic, Georgia;font-style:italic;}</style></defs><title>02-triangles-polygon</title><g id="Layer_3" data-name="Layer 3"><polygon class="cls-1" points="104.6 14.52 45.47 14.52 15.91 65.72 45.47 116.93 104.6 116.93 134.16 65.72 104.6 14.52"/><line class="cls-2" x1="74.92" y1="66.3" x2="45.4" y2="117.31"/><line class="cls-3" x1="15.84" y1="66.1" x2="74.64" y2="66.1"/><line class="cls-3" x1="45.4" y1="14.9" x2="74.92" y2="66.3"/><line class="cls-3" x1="104.53" y1="117.31" x2="74.92" y2="66.3"/><line class="cls-3" x1="134.09" y1="66.1" x2="74.92" y2="66.1"/><line class="cls-3" x1="104.12" y1="14.79" x2="74.92" y2="65.46"/><text class="cls-4" transform="translate(74.9 132.45)">a</text><text class="cls-4" transform="translate(60.34 75.94)">θ</text><line class="cls-1" x1="47.42" y1="121.79" x2="103.27" y2="121.79"/><path d="M47.57,121.79a2.72,2.72,0,0,0,.59-1.7,5.07,5.07,0,0,1-2.08,1.7,5.39,5.39,0,0,1,2.08,1.71A2.81,2.81,0,0,0,47.57,121.79Z"/><path d="M103.12,121.79a2.73,2.73,0,0,1-.6-1.7,5.14,5.14,0,0,0,2.08,1.7,5.46,5.46,0,0,0-2.08,1.71A2.88,2.88,0,0,1,103.12,121.79Z"/></g></svg>