<svg xmlns="http://www.w3.org/2000/svg" viewBox="0 0 150 150"><defs><style>.cls-1,.cls-2,.cls-3,.cls-5{fill:none;stroke-miterlimit:10;stroke-width:0.5px;}.cls-1{stroke:#020202;}.cls-2{stroke:#231f20;}.cls-3{stroke:#3953a4;}.cls-4{font-size:8px;}.cls-4,.cls-6{fill:#231f20;font-family:Georgia-Italic, Georgia;font-style:italic;}.cls-5{stroke:#000;}.cls-6{font-size:5px;}</style></defs><title>04-dodecahedron</title><g id="Layer_3" data-name="Layer 3"><polygon class="cls-1" points="89.73 16.12 61.85 16.12 37.71 30.06 23.77 54.2 23.77 82.08 37.71 106.23 61.85 120.17 89.73 120.17 113.88 106.23 127.82 82.08 127.82 54.2 113.88 30.06 89.73 16.12"/><polyline class="cls-1" points="89.73 16.12 75.66 68.39 113.88 30.06"/><polyline class="cls-1" points="127.82 54.2 75.66 68.39 127.26 82.06"/><polyline class="cls-1" points="113.88 106.23 75.66 68.39 89.73 120.17"/><polyline class="cls-1" points="61.85 120.17 75.66 68.39 37.71 106.23"/><polyline class="cls-1" points="23.77 82.08 75.66 68.39 23.77 54.2"/><polyline class="cls-2" points="37.71 30.06 75.66 68.39 61.85 16.12"/><line class="cls-3" x1="75.73" y1="68.72" x2="75.73" y2="119.67"/><rect class="cls-3" x="75.76" y="113.47" width="6.2" height="6.2"/><text class="cls-4" transform="translate(74.35 131.13)">a</text><line class="cls-5" x1="63.73" y1="124.47" x2="88.14" y2="124.47"/><path d="M63.88,124.47a2.74,2.74,0,0,0,.59-1.7,5.07,5.07,0,0,1-2.08,1.7,5.45,5.45,0,0,1,2.08,1.7A2.8,2.8,0,0,0,63.88,124.47Z"/><path d="M88,124.47a2.81,2.81,0,0,1-.6-1.7,5.14,5.14,0,0,0,2.08,1.7,5.53,5.53,0,0,0-2.08,1.7A2.88,2.88,0,0,1,88,124.47Z"/><text class="cls-4" transform="translate(76.25 100.12)">h</text><text class="cls-6" transform="translate(80.94 102.58)">t</text></g></svg>